<?xml version="1.0" encoding="UTF-8"?>
<svg xmlns="http://www.w3.org/2000/svg" xmlns:xlink="http://www.w3.org/1999/xlink" width="40px" height="40px" viewBox="0 0 40 40" version="1.1">
<g id="surface1">
<path style=" stroke:none;fill-rule:nonzero;fill:rgb(100%,92.156863%,23.137255%);fill-opacity:1;" d="M 19.238281 0.0859375 C 19.238281 0.113281 19.15625 0.375 19.070312 0.65625 C 18.980469 0.9375 18.585938 2.3125 18.1875 3.699219 C 17.351562 6.648438 17.101562 7.476562 17.054688 7.511719 C 17.019531 7.550781 17.175781 7.726562 14.4375 4.75 C 13.261719 3.46875 12.164062 2.28125 11.992188 2.113281 L 11.6875 1.800781 L 11.6875 1.914062 C 11.6875 2.074219 11.75 2.632812 12.125 5.949219 C 12.3125 7.601562 12.476562 9.074219 12.488281 9.21875 C 12.5 9.363281 12.511719 9.511719 12.519531 9.554688 C 12.53125 9.625 12.523438 9.625 12.460938 9.613281 C 12.34375 9.574219 11.59375 9.230469 9.96875 8.476562 C 6.238281 6.738281 5.59375 6.449219 5.414062 6.386719 L 5.335938 6.367188 L 5.414062 6.507812 C 5.550781 6.773438 6.101562 7.789062 7.40625 10.136719 C 8.875 12.792969 9.09375 13.195312 9.09375 13.25 C 9.09375 13.292969 8.699219 13.289062 7.324219 13.238281 C 1.476562 12.988281 1.238281 12.980469 1.261719 13.023438 C 1.300781 13.085938 2.179688 13.792969 4.40625 15.5625 C 6.242188 17.023438 6.824219 17.488281 7.273438 17.863281 C 7.332031 17.914062 7.351562 17.945312 7.324219 17.960938 C 7.273438 18.019531 6.550781 18.289062 4.09375 19.1875 C 1.730469 20.050781 0.625 20.457031 0.164062 20.644531 C 0.0234375 20.699219 0 20.738281 0.0859375 20.761719 C 0.113281 20.761719 0.375 20.84375 0.65625 20.929688 C 0.9375 21.019531 2.363281 21.425781 3.8125 21.84375 C 6.761719 22.6875 7.46875 22.898438 7.511719 22.945312 C 7.550781 22.980469 7.699219 22.835938 4.761719 25.542969 C 3.511719 26.699219 2.332031 27.792969 2.136719 27.976562 L 1.800781 28.3125 L 1.914062 28.3125 C 2.074219 28.3125 2.625 28.25 5.949219 27.875 C 7.601562 27.6875 9.101562 27.523438 9.289062 27.507812 C 9.617188 27.488281 9.625 27.488281 9.605469 27.550781 C 9.570312 27.667969 9.1875 28.5 8.0625 30.925781 C 6.800781 33.632812 6.367188 34.585938 6.382812 34.625 C 6.394531 34.664062 7.113281 34.273438 10.125 32.601562 C 12.792969 31.125 13.195312 30.90625 13.25 30.90625 C 13.292969 30.90625 13.289062 31.300781 13.238281 32.675781 C 12.988281 38.523438 12.980469 38.761719 13.023438 38.738281 C 13.082031 38.699219 13.789062 37.824219 15.5625 35.59375 C 17.023438 33.757812 17.5 33.164062 17.863281 32.726562 C 17.914062 32.664062 17.945312 32.648438 17.960938 32.675781 C 18.023438 32.726562 18.164062 33.113281 19.65625 37.1875 C 20.117188 38.457031 20.539062 39.570312 20.636719 39.835938 C 20.699219 39.976562 20.738281 40 20.761719 39.914062 C 20.761719 39.886719 20.84375 39.625 20.929688 39.34375 C 21.019531 39.0625 21.414062 37.6875 21.8125 36.300781 C 22.648438 33.351562 22.898438 32.523438 22.945312 32.488281 C 22.980469 32.449219 22.824219 32.273438 25.5625 35.25 C 26.738281 36.53125 27.835938 37.71875 28.007812 37.886719 L 28.3125 38.199219 L 28.3125 38.085938 C 28.3125 37.925781 28.25 37.367188 27.875 34.050781 C 27.6875 32.398438 27.523438 30.925781 27.511719 30.78125 C 27.5 30.636719 27.488281 30.488281 27.480469 30.445312 C 27.46875 30.375 27.476562 30.375 27.539062 30.386719 C 27.65625 30.425781 28.40625 30.769531 30.03125 31.523438 C 33.761719 33.261719 34.40625 33.550781 34.585938 33.613281 L 34.664062 33.632812 L 34.585938 33.492188 C 34.449219 33.226562 33.898438 32.210938 32.59375 29.863281 C 31.125 27.207031 30.90625 26.804688 30.90625 26.75 C 30.90625 26.707031 31.300781 26.710938 32.675781 26.761719 C 38.523438 27.011719 38.761719 27.019531 38.738281 26.976562 C 38.699219 26.914062 37.820312 26.207031 35.59375 24.4375 C 33.757812 22.976562 33.175781 22.511719 32.726562 22.136719 C 32.667969 22.085938 32.648438 22.054688 32.675781 22.039062 C 32.726562 21.980469 33.449219 21.710938 35.90625 20.8125 C 38.269531 19.949219 39.375 19.542969 39.835938 19.355469 C 39.976562 19.300781 40 19.261719 39.914062 19.238281 C 39.886719 19.238281 39.625 19.15625 39.34375 19.070312 C 39.0625 18.980469 37.636719 18.574219 36.1875 18.15625 C 33.238281 17.3125 32.53125 17.101562 32.488281 17.054688 C 32.449219 17.019531 32.300781 17.164062 35.238281 14.457031 C 36.488281 13.300781 37.675781 12.207031 37.863281 12.023438 L 38.199219 11.6875 L 38.085938 11.6875 C 37.925781 11.6875 37.375 11.75 34.050781 12.125 C 32.398438 12.3125 30.898438 12.476562 30.710938 12.492188 C 30.382812 12.511719 30.375 12.511719 30.394531 12.449219 C 30.429688 12.332031 30.8125 11.5 31.9375 9.074219 C 33.199219 6.367188 33.632812 5.414062 33.617188 5.375 C 33.605469 5.335938 32.886719 5.726562 29.875 7.398438 C 27.207031 8.875 26.804688 9.09375 26.75 9.09375 C 26.707031 9.09375 26.710938 8.699219 26.761719 7.324219 C 27.011719 1.476562 27.019531 1.238281 26.976562 1.261719 C 26.917969 1.300781 26.210938 2.175781 24.4375 4.40625 C 22.976562 6.242188 22.5 6.835938 22.136719 7.273438 C 22.085938 7.335938 22.054688 7.351562 22.039062 7.324219 C 21.976562 7.273438 21.835938 6.886719 20.34375 2.8125 C 19.882812 1.542969 19.460938 0.429688 19.363281 0.164062 C 19.300781 0.0234375 19.261719 -0.0078125 19.238281 0.0859375 Z M 19.238281 0.0859375 "/>
</g>
</svg>
